<?xml version="1.0" encoding="utf-8"?>
<!-- Generator: Adobe Illustrator 25.4.1, SVG Export Plug-In . SVG Version: 6.00 Build 0)  -->
<svg version="1.1" xmlns="http://www.w3.org/2000/svg" xmlns:xlink="http://www.w3.org/1999/xlink" x="0px" y="0px"
	 viewBox="0 0 150 150" style="enable-background:new 0 0 150 150;" xml:space="preserve">
<g id="Layer_1">
	<path d="M111.8,50.9c-1.4-2-3.2-3.8-5.1-5.3c-4-3.9-9-6.6-12.9-10.8C86.2,27.4,83.5,16,85.6,5.6c0.7-3.3-2.8-6-5.7-4.4
		c-2.7,1.5-5.2,3.2-7.5,5.1C56,19.8,50.1,41.3,57.9,61.6c0.1,0.2,0.1,0.5,0.2,0.8c0.1,0.5,0.3,1.1,0.3,1.8c0,0.6-0.1,1.9-0.4,2.4
		c-0.9,1.5-3.6,3.5-5.3,2.9c-1-0.4-1.8-1-2.3-1.9c-4-5.2-6.1-11.6-6.4-18.1c-0.1-4.1-5.6-5.4-7.5-1.8c-3.8,7.5-5.6,16.2-5.1,24.5
		c0.2,3.2,0.6,6.4,1.7,9.6c1,3.9,2.6,7.8,4.7,11.2c6.7,11.2,18.7,19.3,31.4,20.9c13.6,1.8,28.2-0.8,38.7-10.3
		c11.5-10.7,14.5-27.9,9.5-43.3c-0.1-0.2,0.1,0.2,0,0l0,0c-0.1-0.1-0.6-1.7-0.6-1.8C115.5,55.6,113.7,53.4,111.8,50.9L111.8,50.9
		 M91.7,91.7c-1.8,1.6-4.7,3.2-7,3.9c-5.8,2-11.9,0.4-15.8-3.1c-5.4-4.8-2.6-8.8-1.2-9.2c9-2.7,13.3-2.5,14-6.8
		c1-5.2-2.9-8.9-3.8-13.9c-0.2-1.6-0.4-3-0.4-4.5c-0.1-3,3.7-4.3,5.5-2l0,0c4.9,6.5,12.6,9.3,14.3,17.9c0.2,1.2,0.4,2,0.4,3
		C97.7,82.4,95.6,88.2,91.7,91.7"/>
</g>
<g id="Layer_2">
	<path d="M112.9,119.8l31.5,12.3c3.2,0.8,5.1,4,4.5,7.3l-1,4.9c-0.7,3.5-4.2,5.6-7.6,4.7L77,128.3c-0.3-0.1-0.5-0.1-0.8,0L10.9,149
		c-3.3,0.9-6.7-1.1-7.6-4.4L2,139.5c-0.9-3.3,1.1-6.7,4.4-7.6l33-12.2c0.6-0.2,0.6-1,0-1.2L5.5,106.4c-3.3-0.9-5.3-4.3-4.4-7.6
		l1.3-5.1c0.9-3.3,4.3-5.3,7.6-4.4l65.3,20.7c0.3,0.1,0.5,0.1,0.8,0l63.6-20.7c3.3-0.9,6.7,1.1,7.6,4.4l1.3,5.1
		c0.9,3.3-1.1,6.7-4.4,7.6l-31.2,12.1C112.3,118.8,112.3,119.7,112.9,119.8z"/>
</g>
</svg>
